<?xml version="1.0" encoding="UTF-8"?>
<!DOCTYPE svg PUBLIC "-//W3C//DTD SVG 1.1//EN" "http://www.w3.org/Graphics/SVG/1.1/DTD/svg11.dtd">
<svg xmlns="http://www.w3.org/2000/svg" version="1.1" width="30px" height="30px" style="shape-rendering:geometricPrecision; text-rendering:geometricPrecision; image-rendering:optimizeQuality; fill-rule:evenodd; clip-rule:evenodd" xmlns:xlink="http://www.w3.org/1999/xlink">
<g><path style="opacity:0.849" fill="#000000" d="M 8.5,0.5 C 10.4646,0.948349 10.7979,1.94835 9.5,3.5C 8.61432,2.67504 8.28099,1.67504 8.5,0.5 Z"/></g>
<g><path style="opacity:0.459" fill="#000000" d="M 6.5,5.5 C 5.16667,5.5 3.83333,5.5 2.5,5.5C 2.5,4.5 2.5,3.5 2.5,2.5C 4.97259,2.08824 6.30592,3.08824 6.5,5.5 Z"/></g>
<g><path style="opacity:0.458" fill="#000000" d="M 12.5,5.5 C 12.6941,3.08824 14.0274,2.08824 16.5,2.5C 16.5,3.5 16.5,4.5 16.5,5.5C 15.1667,5.5 13.8333,5.5 12.5,5.5 Z"/></g>
<g><path style="opacity:0.573" fill="#000000" d="M 12.5,13.5 C 13.1667,13.5 13.5,13.1667 13.5,12.5C 16.6306,9.87121 19.6306,7.03787 22.5,4C 23.448,3.51722 24.448,3.35055 25.5,3.5C 25.6495,4.55198 25.4828,5.55198 25,6.5C 18.8333,12.6667 12.6667,18.8333 6.5,25C 5.55198,25.4828 4.55198,25.6495 3.5,25.5C 3.35055,24.448 3.51722,23.448 4,22.5C 7.03787,19.6306 9.87121,16.6306 12.5,13.5 Z"/></g>
<g><path style="opacity:0.828" fill="#000000" d="M 6.5,5.5 C 8.5,5.5 10.5,5.5 12.5,5.5C 13.3686,7.71702 13.702,10.0504 13.5,12.5C 12.8333,12.5 12.5,12.8333 12.5,13.5C 10.5,13.5 8.5,13.5 6.5,13.5C 6.5,12.8333 6.16667,12.5 5.5,12.5C 5.29803,10.0504 5.63137,7.71702 6.5,5.5 Z"/></g>
<g><path style="opacity:0.842" fill="#000000" d="M 0.5,8.5 C 1.67504,8.28099 2.67504,8.61432 3.5,9.5C 1.94835,10.7979 0.948349,10.4646 0.5,8.5 Z"/></g>
<g><path style="opacity:0.766" fill="#000000" d="M 22.5,11.5 C 24.337,11.6395 24.6704,12.3061 23.5,13.5C 22.7025,13.0431 22.3691,12.3764 22.5,11.5 Z"/></g>
<g><path style="opacity:0.387" fill="#000000" d="M 5.5,12.5 C 6.16667,12.5 6.5,12.8333 6.5,13.5C 6.30592,15.9118 4.97259,16.9118 2.5,16.5C 2.08824,14.0274 3.08824,12.6941 5.5,12.5 Z"/></g>
<g><path style="opacity:0.748" fill="#000000" d="M 17.5,15.5 C 18.5,15.5 19.5,15.5 20.5,15.5C 20.1667,19.8333 22.1667,21.8333 26.5,21.5C 26.7035,23.3904 26.0368,24.8904 24.5,26C 15.4297,27.1356 13.0963,23.6356 17.5,15.5 Z"/></g>
<g><path style="opacity:0.766" fill="#000000" d="M 24.5,15.5 C 26.337,15.6395 26.6704,16.3061 25.5,17.5C 24.7025,17.0431 24.3691,16.3764 24.5,15.5 Z"/></g>
</svg>
